<?xml version="1.0" encoding="UTF-8" standalone="no"?><!DOCTYPE svg PUBLIC "-//W3C//DTD SVG 1.1//EN" "http://www.w3.org/Graphics/SVG/1.1/DTD/svg11.dtd"><svg width="100%" height="100%" viewBox="0 0 625 250" version="1.1" xmlns="http://www.w3.org/2000/svg" xmlns:xlink="http://www.w3.org/1999/xlink" xml:space="preserve" xmlns:serif="http://www.serif.com/" style="fill-rule:evenodd;clip-rule:evenodd;stroke-linejoin:round;stroke-miterlimit:2;"><rect id="Logo_50th_Rebuilt" x="0" y="0" width="625" height="250" style="fill:none;"/><g id="Logo_50th_Rebuilt1" serif:id="Logo_50th_Rebuilt"><g id="_50thLogo" serif:id="50thLogo" transform="matrix(1.14583,0,0,1.14583,-39.7477,-35.1521)"><g id="AdditionalText"><g transform="matrix(1.00271,0,0,1.00271,-129.334,-48.549)"><path d="M375.578,234.586L375.578,218.216L378.578,218.216L378.578,234.586L375.578,234.586ZM393.466,229.372C392.424,231.364 391.035,233.173 389.3,234.798L385.726,234.798C386.656,233.993 387.641,232.897 388.68,231.511C389.718,230.124 390.453,228.903 390.883,227.849C390.297,228.099 389.671,228.223 389.007,228.223C387.71,228.223 386.638,227.761 385.791,226.835C384.943,225.909 384.519,224.723 384.519,223.278C384.519,222.325 384.742,221.445 385.187,220.635C385.633,219.827 386.253,219.187 387.051,218.713C387.847,218.241 388.726,218.005 389.687,218.005C390.718,218.005 391.644,218.247 392.465,218.732C393.285,219.215 393.917,219.897 394.363,220.776C394.808,221.655 395.031,222.664 395.031,223.806C395.031,225.524 394.509,227.38 393.466,229.372ZM391.345,221.421C390.919,220.932 390.367,220.688 389.687,220.688C389.031,220.688 388.501,220.923 388.099,221.392C387.697,221.86 387.496,222.473 387.496,223.231C387.496,223.958 387.703,224.556 388.116,225.024C388.531,225.493 389.078,225.728 389.758,225.728C390.398,225.728 390.929,225.491 391.351,225.018C391.772,224.546 391.984,223.981 391.984,223.325C391.984,222.544 391.772,221.909 391.345,221.421ZM401.582,234.798L398.816,233.767L403.984,221.028L397.457,221.028L397.457,218.216L408.18,218.216L408.18,218.309L401.582,234.798ZM413.91,224.509L414.214,224.485L414.46,224.485C415.461,224.485 416.367,224.702 417.179,225.136C417.992,225.569 418.627,226.177 419.083,226.958C419.54,227.739 419.769,228.618 419.769,229.594C419.769,231.133 419.251,232.386 418.216,233.35C417.181,234.315 415.82,234.798 414.133,234.798C412.632,234.798 411.304,234.489 410.148,233.872L410.148,231.129C411.366,231.879 412.534,232.255 413.652,232.255C414.527,232.255 415.257,232.01 415.843,231.522C416.429,231.034 416.722,230.415 416.722,229.665C416.722,228.821 416.386,228.163 415.715,227.69C415.042,227.218 414.129,226.981 412.972,226.981C412.425,226.981 411.82,227.051 411.156,227.192L411.156,218.216L419.101,218.216L419.101,220.981L413.91,220.981L413.91,224.509ZM429.004,230.532L429.004,227.766L435.074,227.766L435.074,230.532L429.004,230.532ZM454.246,234.586L443.64,234.586L443.64,234.247C444.875,232.724 445.935,231.354 446.821,230.139C447.708,228.924 448.394,227.917 448.878,227.116C449.363,226.316 449.707,225.634 449.91,225.071C450.113,224.509 450.214,223.927 450.214,223.325C450.214,222.575 449.974,221.944 449.494,221.432C449.013,220.921 448.429,220.665 447.742,220.665C446.507,220.665 445.226,221.368 443.898,222.775L443.898,219.563C445.296,218.524 446.722,218.005 448.176,218.005C449.73,218.005 450.966,218.448 451.884,219.335C452.802,220.222 453.261,221.403 453.261,222.88C453.261,224.005 452.919,225.223 452.236,226.536C451.552,227.849 450.351,229.587 448.632,231.751L454.246,231.751L454.246,234.586ZM465.648,232.536C464.687,234.043 463.375,234.798 461.711,234.798C460.023,234.798 458.689,234.05 457.708,232.553C456.728,231.058 456.238,229.008 456.238,226.407C456.238,223.814 456.726,221.764 457.702,220.261C458.679,218.757 460.007,218.005 461.687,218.005C463.343,218.005 464.658,218.751 465.63,220.243C466.603,221.735 467.089,223.774 467.089,226.36C467.089,228.969 466.609,231.028 465.648,232.536ZM461.664,220.688C460.077,220.688 459.284,222.626 459.284,226.5C459.284,230.243 460.086,232.114 461.687,232.114C463.25,232.114 464.031,230.145 464.031,226.207C464.031,222.528 463.242,220.688 461.664,220.688ZM479.582,234.586L468.976,234.586L468.976,234.247C470.21,232.724 471.271,231.354 472.158,230.139C473.045,228.924 473.73,227.917 474.215,227.116C474.698,226.316 475.042,225.634 475.246,225.071C475.449,224.509 475.551,223.927 475.551,223.325C475.551,222.575 475.31,221.944 474.83,221.432C474.349,220.921 473.766,220.665 473.078,220.665C471.844,220.665 470.562,221.368 469.233,222.775L469.233,219.563C470.632,218.524 472.058,218.005 473.511,218.005C475.066,218.005 476.302,218.448 477.221,219.335C478.138,220.222 478.598,221.403 478.598,222.88C478.598,224.005 478.256,225.223 477.572,226.536C476.888,227.849 475.687,229.587 473.969,231.751L479.582,231.751L479.582,234.586ZM485.816,224.509L486.12,224.485L486.366,224.485C487.367,224.485 488.273,224.702 489.086,225.136C489.898,225.569 490.533,226.177 490.99,226.958C491.447,227.739 491.675,228.618 491.675,229.594C491.675,231.133 491.158,232.386 490.123,233.35C489.088,234.315 487.726,234.798 486.039,234.798C484.538,234.798 483.21,234.489 482.054,233.872L482.054,231.129C483.273,231.879 484.441,232.255 485.558,232.255C486.433,232.255 487.164,232.01 487.749,231.522C488.335,231.034 488.628,230.415 488.628,229.665C488.628,228.821 488.292,228.163 487.621,227.69C486.948,227.218 486.035,226.981 484.878,226.981C484.331,226.981 483.726,227.051 483.062,227.192L483.062,218.216L491.008,218.216L491.008,220.981L485.816,220.981L485.816,224.509Z" style="fill:#efb14a;"/></g><g transform="matrix(1.00271,0,0,1.00271,-129.334,-48.549)"><path d="M400.269,259.012L396.771,259.012L396.771,270.552L395.031,270.552L395.031,259.012L390.636,259.012L390.636,257.465L400.269,257.465L400.269,259.012ZM401.165,257.465L410.799,257.465L410.799,259.012L406.404,259.012L406.404,270.552L404.663,270.552L404.663,259.012L401.165,259.012L401.165,257.465ZM188.813,262.484C189.024,262.46 189.232,262.443 189.437,262.431C189.642,262.42 189.83,262.414 189.999,262.414C190.668,262.414 191.233,262.47 191.696,262.581C192.159,262.692 192.604,262.909 193.032,263.231C193.466,263.559 193.798,263.969 194.029,264.461C194.261,264.953 194.377,265.595 194.377,266.386C194.377,267.019 194.276,267.605 194.073,268.144C193.871,268.683 193.588,269.149 193.226,269.541C192.856,269.94 192.398,270.254 191.85,270.482C191.302,270.71 190.688,270.824 190.008,270.824C189.382,270.824 188.765,270.756 188.159,270.618C187.552,270.48 187.026,270.301 186.581,270.077L186.581,268.224L186.703,268.224C186.838,268.323 187.032,268.436 187.284,268.561C187.536,268.688 187.814,268.806 188.119,268.918C188.464,269.04 188.78,269.136 189.068,269.203C189.355,269.271 189.678,269.304 190.035,269.304C190.386,269.304 190.729,269.241 191.063,269.116C191.398,268.989 191.685,268.786 191.924,268.504C192.141,268.247 192.307,267.945 192.421,267.599C192.536,267.254 192.593,266.847 192.593,266.377C192.593,265.915 192.53,265.534 192.403,265.235C192.278,264.936 192.095,264.69 191.854,264.497C191.602,264.274 191.293,264.117 190.927,264.026C190.561,263.935 190.152,263.891 189.701,263.891C189.227,263.891 188.749,263.927 188.268,264C187.787,264.073 187.404,264.142 187.117,264.207L187.117,257.465L194.298,257.465L194.298,259.003L188.813,259.003L188.813,262.484ZM203.39,269.177C202.707,270.275 201.654,270.824 200.23,270.824C198.789,270.824 197.731,270.265 197.058,269.146C196.384,268.027 196.047,266.319 196.047,264.022C196.047,261.66 196.388,259.933 197.071,258.841C197.753,257.748 198.806,257.202 200.23,257.202C201.671,257.202 202.729,257.767 203.403,258.898C204.077,260.029 204.414,261.731 204.414,264.005C204.414,266.355 204.072,268.079 203.39,269.177ZM202.525,261.666C202.454,261.005 202.331,260.454 202.155,260.014C201.98,259.569 201.738,259.231 201.43,258.999C201.122,258.767 200.722,258.652 200.23,258.652C199.744,258.652 199.344,258.767 199.031,258.999C198.717,259.231 198.469,259.575 198.288,260.032C198.112,260.477 197.992,261.04 197.927,261.719C197.863,262.399 197.83,263.167 197.83,264.022C197.83,264.936 197.859,265.7 197.914,266.316C197.97,266.931 198.092,267.482 198.279,267.968C198.449,268.419 198.691,268.767 199.004,269.009C199.317,269.253 199.726,269.375 200.23,269.375C200.717,269.375 201.116,269.259 201.43,269.027C201.744,268.796 201.988,268.452 202.164,267.995C202.334,267.561 202.454,267.013 202.525,266.352C202.594,265.689 202.63,264.907 202.63,264.005C202.63,263.108 202.594,262.329 202.525,261.666ZM216.833,264.76L216.833,270.552L215.093,270.552L215.093,264.945L210.672,257.465L212.605,257.465L215.98,263.239L219.407,257.465L221.254,257.465L216.833,264.76ZM230.649,269.005L230.649,270.552L222.467,270.552L222.467,257.465L230.649,257.465L230.649,259.012L224.207,259.012L224.207,262.598L230.21,262.598L230.21,264.145L224.207,264.145L224.207,269.005L230.649,269.005ZM240.282,270.552L239.095,266.896L234.095,266.896L232.908,270.552L231.15,270.552L235.562,257.465L237.707,257.465L242.119,270.552L240.282,270.552ZM236.59,259.241L234.577,265.41L238.612,265.41L236.59,259.241ZM248.834,264.857L253.492,270.552L251.233,270.552L247.084,265.349L245.098,265.349L245.098,270.552L243.358,270.552L243.358,257.465L246.733,257.465C247.484,257.465 248.111,257.506 248.619,257.589C249.125,257.67 249.607,257.861 250.064,258.16C250.521,258.453 250.883,258.831 251.15,259.293C251.416,259.757 251.549,260.33 251.549,261.016C251.549,261.977 251.306,262.78 250.82,263.424C250.333,264.069 249.672,264.547 248.834,264.857ZM249.528,260.133C249.393,259.837 249.185,259.595 248.904,259.407C248.658,259.244 248.371,259.128 248.043,259.06C247.714,258.993 247.307,258.959 246.821,258.959L245.098,258.959L245.098,263.899L246.627,263.899C247.125,263.899 247.573,263.855 247.972,263.767C248.371,263.679 248.71,263.498 248.992,263.222C249.243,262.976 249.43,262.683 249.551,262.343C249.67,262.003 249.73,261.605 249.73,261.148C249.73,260.767 249.663,260.429 249.528,260.133ZM260.541,259.157C259.891,258.873 259.208,258.731 258.493,258.731C257.685,258.731 257.03,258.92 256.533,259.298C256.035,259.676 255.786,260.172 255.786,260.787C255.786,261.344 255.932,261.787 256.225,262.114C256.518,262.443 256.943,262.683 257.5,262.835C257.868,262.935 258.32,263.047 258.853,263.174C259.386,263.3 259.829,263.416 260.18,263.521C261.083,263.797 261.742,264.212 262.158,264.769C262.574,265.326 262.782,266.012 262.782,266.826C262.782,267.335 262.678,267.84 262.47,268.338C262.262,268.836 261.971,269.257 261.595,269.603C261.174,269.984 260.698,270.277 260.167,270.482C259.637,270.687 258.973,270.79 258.177,270.79C257.227,270.79 256.42,270.692 255.756,270.495C255.09,270.299 254.464,270.057 253.878,269.77L253.878,267.591L254.002,267.591C254.576,268.13 255.226,268.547 255.953,268.843C256.679,269.139 257.38,269.287 258.053,269.287C259.015,269.287 259.74,269.086 260.233,268.685C260.725,268.284 260.971,267.754 260.971,267.098C260.971,266.577 260.843,266.151 260.585,265.824C260.326,265.496 259.917,265.252 259.355,265.094C258.95,264.977 258.581,264.881 258.247,264.804C257.912,264.729 257.494,264.625 256.99,264.497C256.538,264.379 256.134,264.23 255.777,264.049C255.42,263.867 255.103,263.629 254.828,263.336C254.558,263.049 254.349,262.711 254.2,262.322C254.05,261.932 253.975,261.482 253.975,260.972C253.975,259.912 254.389,259.023 255.215,258.305C256.04,257.586 257.096,257.228 258.379,257.228C259.111,257.228 259.804,257.302 260.457,257.448C261.11,257.595 261.715,257.802 262.272,258.071L262.272,260.155L262.14,260.155C261.725,259.774 261.191,259.441 260.541,259.157ZM280.606,266.887C280.337,267.743 279.947,268.46 279.437,269.04C278.904,269.65 278.282,270.1 277.569,270.389C276.858,270.679 276.074,270.824 275.219,270.824C274.334,270.824 273.537,270.675 272.828,270.376C272.119,270.077 271.509,269.632 271,269.04C270.496,268.46 270.109,267.746 269.84,266.896C269.57,266.046 269.435,265.086 269.435,264.013C269.435,262.912 269.571,261.945 269.844,261.113C270.116,260.281 270.504,259.566 271.008,258.969C271.513,258.388 272.12,257.948 272.832,257.646C273.544,257.344 274.34,257.193 275.219,257.193C276.109,257.193 276.912,257.349 277.627,257.659C278.341,257.969 278.945,258.406 279.437,258.969C279.936,259.542 280.322,260.255 280.597,261.104C280.873,261.953 281.01,262.923 281.01,264.013C281.01,265.074 280.876,266.032 280.606,266.887ZM278.919,261.71C278.731,261.043 278.468,260.488 278.128,260.05C277.782,259.598 277.364,259.259 276.875,259.034C276.385,258.808 275.836,258.696 275.227,258.696C274.594,258.696 274.042,258.805 273.57,259.026C273.099,259.245 272.681,259.586 272.318,260.05C271.972,260.495 271.707,261.054 271.523,261.728C271.338,262.402 271.246,263.164 271.246,264.013C271.246,265.73 271.606,267.044 272.327,267.955C273.048,268.867 274.014,269.322 275.227,269.322C276.441,269.322 277.405,268.867 278.124,267.955C278.841,267.044 279.2,265.73 279.2,264.013C279.2,263.146 279.106,262.379 278.919,261.71ZM284.657,259.012L284.657,262.703L290.494,262.703L290.494,264.251L284.657,264.251L284.657,270.552L282.918,270.552L282.918,257.465L290.749,257.465L290.749,259.012L284.657,259.012ZM305.691,270.552L305.691,264.145L299.669,264.145L299.669,270.552L297.929,270.552L297.929,257.465L299.669,257.465L299.669,262.598L305.691,262.598L305.691,257.465L307.431,257.465L307.431,270.552L305.691,270.552ZM318.267,269.005L318.267,270.552L310.085,270.552L310.085,257.465L318.267,257.465L318.267,259.012L311.825,259.012L311.825,262.598L317.828,262.598L317.828,264.145L311.825,264.145L311.825,269.005L318.267,269.005ZM327.901,270.552L326.713,266.896L321.713,266.896L320.526,270.552L318.768,270.552L323.181,257.465L325.325,257.465L329.737,270.552L327.901,270.552ZM324.209,259.241L322.196,265.41L326.231,265.41L324.209,259.241ZM330.976,270.552L330.976,257.465L332.716,257.465L332.716,269.005L338.561,269.005L338.561,270.552L330.976,270.552ZM344.503,269.217L344.503,270.552L339.422,270.552L339.422,269.217L341.092,269.217L341.092,258.801L339.422,258.801L339.422,257.465L344.503,257.465L344.503,258.801L342.833,258.801L342.833,269.217L344.503,269.217ZM354.057,270.552L348.273,259.267L348.273,270.552L346.647,270.552L346.647,257.465L349.117,257.465L354.381,267.827L354.381,257.465L356.007,257.465L356.007,270.552L354.057,270.552ZM363.742,265.498L363.742,263.969L368.488,263.969L368.488,269.682C368.265,269.782 367.968,269.908 367.596,270.06C367.224,270.213 366.877,270.332 366.554,270.42C366.127,270.55 365.74,270.646 365.394,270.71C365.049,270.775 364.629,270.807 364.137,270.807C363.212,270.807 362.365,270.666 361.598,270.385C360.83,270.104 360.171,269.676 359.62,269.102C359.069,268.522 358.647,267.804 358.354,266.949C358.061,266.093 357.915,265.109 357.915,263.996C357.915,262.941 358.063,261.996 358.359,261.161C358.654,260.326 359.078,259.613 359.629,259.021C360.162,258.447 360.818,258.004 361.598,257.694C362.377,257.383 363.229,257.228 364.155,257.228C364.595,257.228 365.016,257.26 365.42,257.324C365.825,257.39 366.212,257.477 366.581,257.589C366.874,257.676 367.201,257.798 367.561,257.953C367.921,258.108 368.212,258.242 368.436,258.353L368.436,260.454L368.286,260.454C368.069,260.26 367.845,260.077 367.614,259.905C367.382,259.731 367.056,259.545 366.633,259.346C366.282,259.171 365.878,259.024 365.42,258.906C364.963,258.79 364.471,258.731 363.944,258.731C362.684,258.731 361.666,259.205 360.889,260.155C360.114,261.104 359.726,262.367 359.726,263.943C359.726,264.821 359.828,265.589 360.033,266.245C360.238,266.902 360.534,267.459 360.921,267.915C361.296,268.366 361.748,268.711 362.279,268.948C362.808,269.185 363.404,269.304 364.067,269.304C364.559,269.304 365.049,269.269 365.535,269.198C366.022,269.129 366.431,269.023 366.766,268.882L366.766,265.498L363.742,265.498ZM376.301,270.552L376.301,257.465L378.042,257.465L378.042,269.005L383.886,269.005L383.886,270.552L376.301,270.552ZM389.828,269.217L389.828,270.552L384.748,270.552L384.748,269.217L386.418,269.217L386.418,258.801L384.748,258.801L384.748,257.465L389.828,257.465L389.828,258.801L388.158,258.801L388.158,269.217L389.828,269.217ZM412.117,270.552L412.117,257.465L413.857,257.465L413.857,269.005L419.702,269.005L419.702,270.552L412.117,270.552ZM429.256,269.005L429.256,270.552L421.073,270.552L421.073,257.465L429.256,257.465L429.256,259.012L422.813,259.012L422.813,262.598L428.816,262.598L428.816,264.145L422.813,264.145L422.813,269.005L429.256,269.005ZM444.557,270.552L444.557,264.145L438.537,264.145L438.537,270.552L436.797,270.552L436.797,257.465L438.537,257.465L438.537,262.598L444.557,262.598L444.557,257.465L446.298,257.465L446.298,270.552L444.557,270.552ZM457.135,269.005L457.135,270.552L448.952,270.552L448.952,257.465L457.135,257.465L457.135,259.012L450.692,259.012L450.692,262.598L456.695,262.598L456.695,264.145L450.692,264.145L450.692,269.005L457.135,269.005ZM466.767,270.552L465.58,266.896L460.58,266.896L459.394,270.552L457.635,270.552L462.048,257.465L464.192,257.465L468.605,270.552L466.767,270.552ZM463.075,259.241L461.064,265.41L465.097,265.41L463.075,259.241ZM475.319,264.857L479.978,270.552L477.719,270.552L473.57,265.349L471.583,265.349L471.583,270.552L469.844,270.552L469.844,257.465L473.218,257.465C473.969,257.465 474.596,257.506 475.104,257.589C475.61,257.67 476.093,257.861 476.549,258.16C477.006,258.453 477.369,258.831 477.635,259.293C477.901,259.757 478.035,260.33 478.035,261.016C478.035,261.977 477.791,262.78 477.305,263.424C476.819,264.069 476.157,264.547 475.319,264.857ZM476.013,260.133C475.878,259.837 475.67,259.595 475.389,259.407C475.144,259.244 474.856,259.128 474.528,259.06C474.199,258.993 473.793,258.959 473.306,258.959L471.583,258.959L471.583,263.899L473.113,263.899C473.611,263.899 474.059,263.855 474.458,263.767C474.856,263.679 475.196,263.498 475.477,263.222C475.729,262.976 475.915,262.683 476.036,262.343C476.155,262.003 476.215,261.605 476.215,261.148C476.215,260.767 476.148,260.429 476.013,260.133ZM485.329,259.012L485.329,270.552L483.59,270.552L483.59,259.012L479.195,259.012L479.195,257.465L489.725,257.465L489.725,259.012L485.329,259.012ZM496.967,259.157C496.316,258.873 495.634,258.731 494.919,258.731C494.11,258.731 493.456,258.92 492.958,259.298C492.46,259.676 492.212,260.172 492.212,260.787C492.212,261.344 492.358,261.787 492.651,262.114C492.944,262.443 493.369,262.683 493.926,262.835C494.294,262.935 494.746,263.047 495.279,263.174C495.812,263.3 496.254,263.416 496.606,263.521C497.509,263.797 498.168,264.212 498.583,264.769C499,265.326 499.208,266.012 499.208,266.826C499.208,267.335 499.104,267.84 498.896,268.338C498.688,268.836 498.396,269.257 498.021,269.603C497.6,269.984 497.123,270.277 496.593,270.482C496.062,270.687 495.399,270.79 494.603,270.79C493.653,270.79 492.846,270.692 492.18,270.495C491.516,270.299 490.89,270.057 490.304,269.77L490.304,267.591L490.428,267.591C491.001,268.13 491.652,268.547 492.378,268.843C493.105,269.139 493.805,269.287 494.479,269.287C495.44,269.287 496.166,269.086 496.659,268.685C497.151,268.284 497.397,267.754 497.397,267.098C497.397,266.577 497.268,266.151 497.011,265.824C496.752,265.496 496.343,265.252 495.78,265.094C495.375,264.977 495.007,264.881 494.673,264.804C494.338,264.729 493.92,264.625 493.416,264.497C492.964,264.379 492.56,264.23 492.203,264.049C491.846,263.867 491.529,263.629 491.254,263.336C490.984,263.049 490.775,262.711 490.625,262.322C490.476,261.932 490.401,261.482 490.401,260.972C490.401,259.912 490.814,259.023 491.641,258.305C492.466,257.586 493.522,257.228 494.805,257.228C495.537,257.228 496.23,257.302 496.883,257.448C497.536,257.595 498.142,257.802 498.698,258.071L498.698,260.155L498.566,260.155C498.15,259.774 497.617,259.441 496.967,259.157ZM514.325,270.552L513.138,266.896L508.138,266.896L506.951,270.552L505.193,270.552L509.605,257.465L511.75,257.465L516.162,270.552L514.325,270.552ZM510.633,259.241L508.621,265.41L512.655,265.41L510.633,259.241ZM522.877,264.857L527.534,270.552L525.277,270.552L521.127,265.349L519.141,265.349L519.141,270.552L517.401,270.552L517.401,257.465L520.776,257.465C521.526,257.465 522.154,257.506 522.661,257.589C523.168,257.67 523.651,257.861 524.107,258.16C524.564,258.453 524.926,258.831 525.193,259.293C525.459,259.757 525.593,260.33 525.593,261.016C525.593,261.977 525.349,262.78 524.863,263.424C524.376,264.069 523.715,264.547 522.877,264.857ZM523.571,260.133C523.436,259.837 523.228,259.595 522.947,259.407C522.701,259.244 522.413,259.128 522.086,259.06C521.757,258.993 521.35,258.959 520.864,258.959L519.141,258.959L519.141,263.899L520.671,263.899C521.168,263.899 521.617,263.855 522.015,263.767C522.413,263.679 522.753,263.498 523.035,263.222C523.287,262.976 523.473,262.683 523.593,262.343C523.713,262.003 523.773,261.605 523.773,261.148C523.773,260.767 523.706,260.429 523.571,260.133ZM538.996,266.887C538.727,267.743 538.337,268.46 537.826,269.04C537.294,269.65 536.671,270.1 535.96,270.389C535.247,270.679 534.463,270.824 533.608,270.824C532.724,270.824 531.927,270.675 531.217,270.376C530.509,270.077 529.899,269.632 529.389,269.04C528.886,268.46 528.499,267.746 528.229,266.896C527.96,266.046 527.825,265.086 527.825,264.013C527.825,262.912 527.961,261.945 528.234,261.113C528.506,260.281 528.894,259.566 529.398,258.969C529.902,258.388 530.51,257.948 531.222,257.646C531.934,257.344 532.729,257.193 533.608,257.193C534.499,257.193 535.301,257.349 536.017,257.659C536.731,257.969 537.334,258.406 537.826,258.969C538.324,259.542 538.711,260.255 538.987,261.104C539.263,261.953 539.4,262.923 539.4,264.013C539.4,265.074 539.266,266.032 538.996,266.887ZM537.308,261.71C537.121,261.043 536.857,260.488 536.518,260.05C536.172,259.598 535.754,259.259 535.265,259.034C534.775,258.808 534.226,258.696 533.617,258.696C532.984,258.696 532.432,258.805 531.96,259.026C531.489,259.245 531.071,259.586 530.708,260.05C530.362,260.495 530.096,261.054 529.913,261.728C529.728,262.402 529.635,263.164 529.635,264.013C529.635,265.73 529.995,267.044 530.717,267.955C531.438,268.867 532.404,269.322 533.617,269.322C534.829,269.322 535.795,268.867 536.513,267.955C537.23,267.044 537.59,265.73 537.59,264.013C537.59,263.146 537.496,262.379 537.308,261.71ZM550.338,267.968C550.154,268.619 549.83,269.17 549.367,269.621C548.951,270.025 548.466,270.327 547.912,270.526C547.359,270.725 546.68,270.824 545.878,270.824C545.11,270.824 544.439,270.723 543.865,270.521C543.29,270.319 542.801,270.019 542.397,269.621C541.94,269.164 541.617,268.618 541.431,267.982C541.243,267.346 541.149,266.562 541.149,265.631L541.149,257.465L542.889,257.465L542.889,265.631C542.889,266.234 542.927,266.742 543.003,267.155C543.08,267.568 543.229,267.939 543.452,268.267C543.686,268.619 544.004,268.885 544.406,269.067C544.807,269.248 545.297,269.339 545.878,269.339C546.423,269.339 546.906,269.248 547.328,269.067C547.75,268.885 548.078,268.619 548.312,268.267C548.529,267.933 548.677,267.564 548.756,267.16C548.835,266.756 548.875,266.261 548.875,265.675L548.875,257.465L550.615,257.465L550.615,265.631C550.615,266.538 550.522,267.318 550.338,267.968ZM560.52,270.552L554.737,259.267L554.737,270.552L553.111,270.552L553.111,257.465L555.581,257.465L560.846,267.827L560.846,257.465L562.472,257.465L562.472,270.552L560.52,270.552ZM574.718,267.256C574.236,268.217 573.587,268.968 572.772,269.507C572.11,269.922 571.438,270.201 570.755,270.342C570.072,270.482 569.2,270.552 568.14,270.552L565.126,270.552L565.126,257.465L568.105,257.465C569.335,257.465 570.301,257.558 571.001,257.743C571.701,257.926 572.297,258.181 572.789,258.502C573.634,259.059 574.287,259.798 574.75,260.721C575.213,261.645 575.444,262.744 575.444,264.022C575.444,265.217 575.202,266.295 574.718,267.256ZM573.132,261.416C572.799,260.704 572.304,260.149 571.647,259.75C571.185,259.469 570.689,259.267 570.162,259.144C569.634,259.021 568.978,258.959 568.193,258.959L566.866,258.959L566.866,269.058L568.193,269.058C568.967,269.058 569.644,268.996 570.223,268.874C570.803,268.75 571.334,268.522 571.815,268.188C572.418,267.777 572.872,267.231 573.176,266.548C573.481,265.867 573.634,265.015 573.634,263.996C573.634,262.988 573.466,262.128 573.132,261.416ZM587.757,259.012L587.757,270.552L586.017,270.552L586.017,259.012L581.623,259.012L581.623,257.465L592.152,257.465L592.152,259.012L587.757,259.012ZM601.231,270.552L601.231,264.145L595.211,264.145L595.211,270.552L593.47,270.552L593.47,257.465L595.211,257.465L595.211,262.598L601.231,262.598L601.231,257.465L602.971,257.465L602.971,270.552L601.231,270.552ZM613.808,269.005L613.808,270.552L605.626,270.552L605.626,257.465L613.808,257.465L613.808,259.012L607.365,259.012L607.365,262.598L613.369,262.598L613.369,264.145L607.365,264.145L607.365,269.005L613.808,269.005ZM632.74,270.552L630.78,270.552L628.117,259.689L625.515,270.552L623.599,270.552L620.251,257.465L622.035,257.465L624.672,268.346L627.291,257.465L629.057,257.465L631.703,268.452L634.322,257.465L636.027,257.465L632.74,270.552ZM648.007,266.887C647.737,267.743 647.347,268.46 646.838,269.04C646.304,269.65 645.682,270.1 644.97,270.389C644.258,270.679 643.475,270.824 642.619,270.824C641.734,270.824 640.937,270.675 640.228,270.376C639.519,270.077 638.91,269.632 638.4,269.04C637.896,268.46 637.51,267.746 637.24,266.896C636.971,266.046 636.836,265.086 636.836,264.013C636.836,262.912 636.972,261.945 637.244,261.113C637.517,260.281 637.905,259.566 638.409,258.969C638.913,258.388 639.52,257.948 640.233,257.646C640.944,257.344 641.739,257.193 642.619,257.193C643.509,257.193 644.312,257.349 645.027,257.659C645.742,257.969 646.345,258.406 646.838,258.969C647.335,259.542 647.722,260.255 647.998,261.104C648.273,261.953 648.411,262.923 648.411,264.013C648.411,265.074 648.276,266.032 648.007,266.887ZM646.32,261.71C646.132,261.043 645.868,260.488 645.528,260.05C645.182,259.598 644.765,259.259 644.276,259.034C643.786,258.808 643.237,258.696 642.628,258.696C641.995,258.696 641.442,258.805 640.971,259.026C640.499,259.245 640.082,259.586 639.718,260.05C639.372,260.495 639.108,261.054 638.923,261.728C638.738,262.402 638.647,263.164 638.647,264.013C638.647,265.73 639.007,267.044 639.728,267.955C640.448,268.867 641.415,269.322 642.628,269.322C643.84,269.322 644.806,268.867 645.523,267.955C646.241,267.044 646.6,265.73 646.6,264.013C646.6,263.146 646.506,262.379 646.32,261.71ZM655.794,264.857L660.451,270.552L658.194,270.552L654.044,265.349L652.058,265.349L652.058,270.552L650.318,270.552L650.318,257.465L653.693,257.465C654.444,257.465 655.071,257.506 655.579,257.589C656.085,257.67 656.568,257.861 657.024,258.16C657.481,258.453 657.842,258.831 658.11,259.293C658.376,259.757 658.509,260.33 658.509,261.016C658.509,261.977 658.266,262.78 657.78,263.424C657.293,264.069 656.632,264.547 655.794,264.857ZM656.488,260.133C656.353,259.837 656.145,259.595 655.864,259.407C655.618,259.244 655.33,259.128 655.003,259.06C654.674,258.993 654.267,258.959 653.781,258.959L652.058,258.959L652.058,263.899L653.588,263.899C654.085,263.899 654.534,263.855 654.932,263.767C655.33,263.679 655.67,263.498 655.952,263.222C656.204,262.976 656.39,262.683 656.51,262.343C656.63,262.003 656.69,261.605 656.69,261.148C656.69,260.767 656.623,260.429 656.488,260.133ZM661.488,270.552L661.488,257.465L663.229,257.465L663.229,269.005L669.073,269.005L669.073,270.552L661.488,270.552ZM680.038,267.256C679.555,268.217 678.906,268.968 678.092,269.507C677.429,269.922 676.757,270.201 676.075,270.342C675.392,270.482 674.52,270.552 673.46,270.552L670.445,270.552L670.445,257.465L673.425,257.465C674.655,257.465 675.62,257.558 676.321,257.743C677.021,257.926 677.617,258.181 678.109,258.502C678.953,259.059 679.606,259.798 680.069,260.721C680.532,261.645 680.763,262.744 680.763,264.022C680.763,265.217 680.522,266.295 680.038,267.256ZM678.452,261.416C678.118,260.704 677.623,260.149 676.967,259.75C676.503,259.469 676.008,259.267 675.482,259.144C674.954,259.021 674.298,258.959 673.513,258.959L672.186,258.959L672.186,269.058L673.513,269.058C674.285,269.058 674.963,268.996 675.543,268.874C676.123,268.75 676.653,268.522 677.133,268.188C677.736,267.777 678.191,267.231 678.496,266.548C678.8,265.867 678.953,265.015 678.953,263.996C678.953,262.988 678.786,262.128 678.452,261.416Z" style="fill:#efb14a;"/></g></g><g id="Logo"><path d="M113.06,147.88L112.61,147.75C111.75,148.44 110.53,149.41 108.96,150.66C107.39,151.91 105.74,153.01 104.01,153.96C102.03,155.13 100.02,156.07 98,156.81C95.98,157.55 93.73,157.91 91.27,157.91C85.02,157.91 80.2,155.7 76.82,151.28C73.44,146.86 71.74,140.76 71.74,133C71.74,127.65 72.72,122.45 74.68,117.4C76.64,112.35 79.32,107.86 82.73,103.94C86.01,100.14 89.93,97.09 94.5,94.78C99.07,92.47 103.85,91.32 108.86,91.32C111.96,91.32 114.9,91.72 117.65,92.52C120.41,93.32 122.63,94.26 124.31,95.33L136.14,92.29L136.92,93.26L126.06,144.25C124.42,151.97 122.32,158.5 119.76,163.82C117.19,169.15 114.23,173.36 110.87,176.47C107.42,179.66 103.62,181.94 99.46,183.3C95.3,184.66 90.59,185.34 85.33,185.34C81.75,185.34 78.83,185.06 76.57,184.5C74.31,183.94 72.53,183.21 71.24,182.3C69.95,181.4 69.07,180.37 68.62,179.23C68.17,178.09 67.94,177 67.94,175.96C67.94,174.02 68.52,172.39 69.69,171.08C70.86,169.76 72.45,169.11 74.48,169.11C76.07,169.11 77.43,169.57 78.55,170.5C79.67,171.43 80.58,172.43 81.27,173.51C82,174.63 82.71,175.97 83.41,177.52C84.1,179.07 84.62,180.23 84.96,181.01L86.9,181.01C89.27,181.01 91.81,180.47 94.53,179.39C97.25,178.31 99.72,176.57 101.96,174.15C104.24,171.65 106.38,168.3 108.36,164.09C110.34,159.89 111.92,154.48 113.08,147.89L113.06,147.88ZM121.67,106.52C121.67,105.31 121.49,104.07 121.12,102.8C120.76,101.53 120.08,100.35 119.09,99.27C118.14,98.23 116.94,97.41 115.47,96.81C114,96.21 112.13,95.9 109.85,95.9C106.54,95.9 103.4,96.9 100.46,98.91C97.51,100.92 94.85,103.67 92.49,107.16C90.3,110.44 88.51,114.41 87.13,119.07C85.75,123.73 85.06,128.41 85.06,133.12C85.06,135.67 85.24,138.01 85.61,140.14C85.98,142.28 86.61,144.14 87.52,145.74C88.43,147.34 89.62,148.58 91.11,149.46C92.6,150.35 94.53,150.79 96.9,150.79C99.92,150.79 102.91,149.92 105.89,148.17C108.87,146.42 111.69,144.19 114.36,141.47L121.67,106.51L121.67,106.52ZM170.75,149.57L169.78,153.71C165.81,155.31 162.65,156.42 160.27,157.04C157.89,157.66 155.87,157.98 154.19,157.98C150.74,157.98 148.15,157.08 146.43,155.29C144.71,153.5 143.84,151.29 143.84,148.66C143.84,147.67 143.93,146.63 144.1,145.55C144.27,144.47 144.55,143.11 144.94,141.47L151.77,113.96C152.11,112.45 152.45,110.83 152.77,109.11C153.09,107.38 153.25,105.92 153.25,104.71C153.25,102.29 152.85,100.69 152.06,99.89C151.27,99.09 149.64,98.69 147.19,98.69C146.24,98.69 144.98,98.84 143.41,99.14C141.84,99.44 140.65,99.7 139.83,99.92L140.8,95.78C144.16,94.27 147.17,93.15 149.85,92.42C152.52,91.69 154.63,91.32 156.19,91.32C159.72,91.32 162.29,92.16 163.88,93.85C165.47,95.53 166.27,97.8 166.27,100.65C166.27,101.43 166.18,102.49 166.01,103.82C165.84,105.15 165.58,106.5 165.23,107.83L158.36,135.34C157.93,137.02 157.56,138.67 157.24,140.29C156.92,141.91 156.76,143.23 156.76,144.27C156.76,146.73 157.31,148.41 158.4,149.32C159.5,150.23 161.27,150.68 163.72,150.68C164.53,150.68 165.71,150.57 167.23,150.36C168.76,150.15 169.93,149.89 170.74,149.58L170.75,149.57ZM175.34,66.87C175.34,69.33 174.54,71.47 172.95,73.3C171.35,75.13 169.37,76.05 167,76.05C164.8,76.05 162.9,75.18 161.31,73.43C159.72,71.68 158.92,69.69 158.92,67.45C158.92,65.08 159.72,63.01 161.31,61.24C162.91,59.47 164.8,58.59 167,58.59C169.46,58.59 171.46,59.42 173.01,61.08C174.56,62.74 175.34,64.67 175.34,66.87ZM229.79,134.96L238.14,99.33L255.99,99.33L257.34,93.45L239.34,93.45L243.71,74.5L232.08,74.5L227.57,93.44L199.7,93.44L201.15,86.61C202.98,77.79 205.03,71.49 207.33,67.7C209.62,63.91 212.26,61.96 215.25,61.83C216.03,62.99 216.68,64.05 217.2,65C217.72,65.95 218.41,66.96 219.27,68.04C220.05,68.99 220.94,69.75 221.93,70.34C222.92,70.92 224.09,71.21 225.43,71.21C227.68,71.21 229.33,70.5 230.39,69.08C231.45,67.66 231.98,66.02 231.98,64.17C231.98,61.97 231.09,60.15 229.3,58.71C227.51,57.27 224.72,56.54 220.93,56.54C217.65,56.54 214.24,57.33 210.68,58.9C207.12,60.47 203.94,62.63 201.14,65.39C198.29,68.19 195.75,71.59 193.51,75.59C191.27,79.59 189.63,84.09 188.6,89.08L187.67,93.47L175.21,93.47L173.85,99.35L186.48,99.35L174.56,155.22C172.84,163.06 170.8,169.1 168.45,173.32C166.1,177.54 163.27,179.79 159.95,180.04C159.39,179.14 158.73,178.06 157.98,176.81C157.23,175.56 156.55,174.57 155.94,173.84C155.16,172.94 154.27,172.18 153.26,171.58C152.25,170.98 151.07,170.68 149.74,170.68C147.63,170.68 146.01,171.39 144.89,172.81C143.77,174.23 143.21,175.87 143.21,177.72C143.21,179.92 144.1,181.74 145.89,183.18C147.68,184.62 150.46,185.35 154.25,185.35C161.14,185.35 167.83,182.31 174.34,176.23C180.84,170.15 185.1,162.33 187.13,152.76L198.52,99.35L225.97,99.35L215.89,142.54C215.67,143.66 215.5,144.66 215.37,145.55C215.24,146.43 215.18,147.37 215.18,148.36C215.18,151.46 216.13,153.85 218.02,155.5C219.92,157.16 222.91,157.99 227.01,157.99C230.63,157.99 233.78,157.57 236.45,156.73C239.12,155.89 241.97,154.89 244.99,153.72L246.09,149C244.97,149.43 243.4,149.79 241.37,150.07C239.34,150.35 237.77,150.49 236.65,150.49C233.54,150.49 231.4,149.94 230.21,148.84C229.02,147.74 228.43,146.01 228.43,143.63C228.43,142.55 228.56,141.25 228.82,139.72C229.08,138.19 229.4,136.61 229.79,134.97L229.79,134.96Z" style="fill:#efb14a;fill-rule:nonzero;"/><path d="M431.3,57.5L413.22,135.35C412.83,136.99 412.46,138.63 412.12,140.26C411.78,141.9 411.6,143.23 411.6,144.27C411.6,146.73 412.15,148.41 413.25,149.31C414.35,150.22 416.12,150.67 418.58,150.67C419.44,150.67 420.72,150.56 422.42,150.35C424.12,150.14 425.4,149.88 426.26,149.57L425.29,153.71C421.41,155.26 418.42,156.36 416.33,157.01C414.24,157.66 411.88,157.98 409.25,157.98C405.8,157.98 403.18,157.08 401.39,155.29C399.6,153.5 398.71,151.29 398.71,148.66C398.71,147.67 398.81,146.63 399,145.55C399.19,144.47 399.46,143.11 399.81,141.47L415.57,73.34C415.87,72 416.08,71.07 416.19,70.56C416.3,70.04 416.35,69.4 416.35,68.62C416.35,67.07 416.09,65.87 415.57,65.03C415.05,64.19 414.31,63.55 413.36,63.12C412.45,62.73 411.3,62.47 409.92,62.34C408.53,62.21 407.13,62.06 405.7,61.89L406.61,57.95L430.66,56.53L431.31,57.5L431.3,57.5ZM463.18,149.58L462.21,153.72C458.24,155.32 455.08,156.43 452.7,157.05C450.32,157.67 448.3,157.99 446.62,157.99C443.17,157.99 440.58,157.09 438.86,155.3C437.14,153.51 436.27,151.3 436.27,148.67C436.27,147.68 436.36,146.64 436.53,145.56C436.7,144.48 436.98,143.12 437.37,141.48L444.2,113.97C444.54,112.46 444.88,110.84 445.2,109.12C445.52,107.39 445.68,105.93 445.68,104.72C445.68,102.3 445.28,100.7 444.49,99.9C443.7,99.1 442.07,98.7 439.62,98.7C438.67,98.7 437.41,98.85 435.84,99.15C434.27,99.45 433.08,99.71 432.26,99.93L433.23,95.79C436.59,94.28 439.6,93.16 442.28,92.43C444.95,91.7 447.06,91.33 448.62,91.33C452.15,91.33 454.72,92.17 456.31,93.86C457.9,95.54 458.7,97.81 458.7,100.66C458.7,101.44 458.61,102.5 458.44,103.83C458.27,105.17 458.01,106.51 457.66,107.84L450.79,135.35C450.36,137.03 449.99,138.68 449.67,140.3C449.35,141.92 449.19,143.24 449.19,144.28C449.19,146.74 449.74,148.42 450.83,149.33C451.93,150.24 453.7,150.69 456.15,150.69C456.96,150.69 458.14,150.58 459.66,150.37C461.19,150.16 462.36,149.9 463.17,149.59L463.18,149.58ZM467.77,66.88C467.77,69.34 466.97,71.48 465.38,73.31C463.78,75.14 461.8,76.06 459.43,76.06C457.23,76.06 455.33,75.19 453.74,73.44C452.14,71.69 451.35,69.7 451.35,67.46C451.35,65.09 452.15,63.02 453.74,61.25C455.34,59.48 457.23,58.6 459.43,58.6C461.89,58.6 463.89,59.43 465.44,61.09C466.99,62.75 467.77,64.68 467.77,66.88ZM490.95,99.34L479.56,152.75C477.54,162.32 473.27,170.14 466.77,176.22C460.27,182.3 453.57,185.34 446.68,185.34C442.89,185.34 440.1,184.62 438.32,183.17C436.53,181.73 435.64,179.9 435.64,177.71C435.64,175.86 436.2,174.22 437.32,172.8C438.44,171.38 440.06,170.67 442.17,170.67C443.51,170.67 444.68,170.97 445.69,171.57C446.7,172.17 447.6,172.93 448.37,173.83C448.97,174.56 449.65,175.55 450.41,176.8C451.17,178.05 451.82,179.13 452.38,180.03C455.7,179.77 458.53,177.53 460.88,173.31C463.23,169.09 465.27,163.05 466.99,155.21L478.91,99.34L466.28,99.34L467.64,93.46L480.1,93.46L481.03,89.07C482.06,84.08 483.7,79.58 485.94,75.58C488.18,71.58 490.73,68.18 493.57,65.38C496.37,62.63 499.55,60.46 503.11,58.89C506.67,57.32 510.08,56.53 513.36,56.53C517.15,56.53 519.95,57.25 521.73,58.7C523.52,60.14 524.41,61.97 524.41,64.16C524.41,66.01 523.88,67.65 522.82,69.07C521.76,70.49 520.11,71.2 517.86,71.2C516.52,71.2 515.35,70.91 514.36,70.33C513.36,69.75 512.48,68.98 511.7,68.03C510.83,66.95 510.14,65.94 509.63,64.99C509.11,64.04 508.46,62.99 507.68,61.82C504.7,61.95 502.06,63.91 499.76,67.69C497.47,71.48 495.41,77.78 493.58,86.6L492.13,93.44L508.45,93.44L507.09,99.32L490.95,99.32L490.95,99.34ZM557.08,104.79C557.08,109.37 555.65,113.3 552.78,116.58C549.91,119.86 545.74,122.47 540.27,124.42C536.26,125.89 532.21,127.08 528.11,127.98C524.01,128.89 519.49,129.64 514.53,130.25C514.53,137.06 515.79,142.27 518.31,145.87C520.83,149.47 524.53,151.27 529.4,151.27C533.71,151.27 537.51,150.19 540.81,148.04C544.11,145.89 547.35,142.67 550.54,138.41L554.23,141.13C550.78,146.39 546.47,150.59 541.3,153.74C536.13,156.89 530.76,158.46 525.2,158.46C517.57,158.46 511.74,156.32 507.71,152.05C503.68,147.78 501.66,141.72 501.66,133.86C501.66,128.42 502.51,123.23 504.21,118.29C505.91,113.35 508.4,108.83 511.68,104.73C514.87,100.72 518.78,97.48 523.42,95.02C528.05,92.56 533.17,91.33 538.78,91.33C544.99,91.33 549.59,92.59 552.59,95.12C555.58,97.65 557.08,100.87 557.08,104.8L557.08,104.79ZM545.18,103.2C545.18,101.52 544.94,100.2 544.47,99.23C543.99,98.26 543.39,97.54 542.66,97.07C541.88,96.55 541.06,96.23 540.2,96.1C539.34,95.97 538.45,95.91 537.55,95.91C532.38,95.91 527.6,98.75 523.23,104.43C518.85,110.11 516.09,117.18 514.92,125.66C517.94,125.23 521.34,124.62 525.14,123.82C528.93,123.03 532.08,121.98 534.58,120.69C538.16,118.84 540.82,116.46 542.57,113.56C544.32,110.66 545.19,107.21 545.19,103.2L545.18,103.2Z" style="fill:#efb14a;fill-rule:nonzero;"/><path d="M383.58,78.41C383.58,79.96 383.17,81.26 382.34,82.33C381.51,83.4 380.26,83.93 378.57,83.93C377.5,83.93 376.57,83.71 375.76,83.26C374.95,82.81 374.21,82.21 373.52,81.45C372.83,80.69 372.2,79.83 371.61,78.87C371.03,77.91 370.53,77.13 370.11,76.55C367.81,76.65 366.03,78.26 364.77,81.36C363.52,84.47 362.89,89.42 362.89,96.21L362.89,101.41L375.99,101.41L375.99,106.36L362.89,106.36L362.89,142.88C362.89,144.08 363.12,145.06 363.59,145.82C364.06,146.58 364.78,147.14 365.78,147.52C366.6,147.83 367.7,148.08 369.08,148.27C370.46,148.46 371.64,148.59 372.64,148.66L372.64,152.06L345.82,152.06L345.82,148.66C346.61,148.59 347.43,148.52 348.27,148.45C349.11,148.38 349.84,148.24 350.46,148.04C351.42,147.73 352.14,147.19 352.6,146.42C353.07,145.65 353.3,144.64 353.3,143.4L353.3,106.37L343.24,106.37L343.24,101.42L353.3,101.42L353.3,98.18C353.3,90.46 355.3,84.2 359.31,79.41C363.32,74.62 368.33,72.23 374.35,72.23C377.41,72.23 379.72,72.83 381.26,74.04C382.81,75.24 383.58,76.71 383.58,78.42L383.58,78.41Z" style="fill:#efb14a;fill-rule:nonzero;"/><path d="M292.67,104.07C298.94,102.26 295.74,113.76 300.2,115.41C307.04,117.94 317.43,107.22 326.81,113.37C340.32,122.24 297.24,157 291.82,154.05C277.36,146.18 275.94,108.9 292.67,104.07Z" style="fill:#d51f3a;fill-rule:nonzero;"/><path d="M304.73,82.15C284.65,82.15 268.38,98.43 268.38,118.5C268.38,130.09 273.81,140.41 282.27,147.07C273.48,130.47 275.6,100.62 291.81,95.93C299.39,93.74 295.52,107.66 300.92,109.65C309.2,112.71 321.78,99.73 333.13,107.18C346.49,115.95 314.12,145.65 298.26,154.26C300.36,154.64 302.52,154.85 304.73,154.85C324.81,154.85 341.08,138.57 341.08,118.5C341.08,98.43 324.8,82.15 304.73,82.15Z" style="fill:#06abc8;fill-rule:nonzero;"/></g></g></g></svg>